<?xml version="1.0"?>
<svg xmlns="http://www.w3.org/2000/svg" height="512px" version="1.1" viewBox="0 -81 512.00026 512" width="512px"><g><g id="surface1">
<path d="M 508.730469 163.910156 C 508.179688 163.140625 494.949219 144.933594 471.546875 140.140625 C 450.332031 135.796875 401.953125 135.550781 399.90625 135.542969 C 396.578125 135.53125 393.507812 135.285156 392.054688 135.097656 C 390.652344 133.953125 387.804688 131.15625 385.925781 128.835938 L 290.996094 11.570312 C 288.945312 9.035156 284.765625 4.257812 282.109375 2.429688 C 277.5625 -0.710938 265.90625 0.0546875 264.59375 0.152344 L 262.011719 0.34375 C 258.492188 0.605469 252.132812 1.308594 249.101562 3.085938 C 247.304688 4.136719 241.84375 7.339844 246.882812 22.886719 C 246.882812 22.886719 283.0625 134.484375 283.207031 134.976562 C 282.667969 135.007812 231.164062 135.027344 231.164062 135.027344 C 227.761719 135.027344 224.628906 134.789062 223.175781 134.609375 C 221.746094 133.515625 218.769531 130.746094 216.824219 128.457031 L 183.34375 89.066406 C 183.105469 88.789062 177.53125 82.257812 174.007812 80.113281 C 169.289062 77.246094 160.222656 78.710938 160.132812 78.726562 C 157.546875 79.210938 153.90625 80.441406 151.601562 82.097656 C 147.445312 85.089844 146.738281 91.644531 149.507812 101.578125 C 157.027344 128.535156 167.753906 168.496094 168.546875 174.613281 C 167.753906 180.730469 157.023438 220.691406 149.507812 247.648438 C 148.921875 249.753906 147.046875 256.921875 147.625 260.644531 C 148.8125 268.296875 159.671875 270.414062 160.132812 270.5 C 162.839844 271.007812 166.523438 271.167969 168.886719 270.886719 C 174.546875 270.203125 181.921875 261.828125 183.34375 260.160156 L 216.824219 220.765625 C 219.003906 218.207031 221.207031 215.992188 222.265625 215.027344 C 224.03125 214.660156 228.101562 214.199219 231.164062 214.199219 C 231.164062 214.199219 282.679688 214.207031 283.1875 214.222656 C 283.050781 214.746094 246.886719 326.339844 246.886719 326.339844 C 245.800781 329.691406 244.046875 335.832031 244.527344 339.292969 C 245.300781 344.855469 251.183594 348.078125 262.015625 348.882812 L 264.59375 349.074219 C 266.234375 349.195312 268.65625 349.316406 271.058594 349.316406 C 273.429688 349.316406 275.777344 349.199219 277.34375 348.863281 C 282.742188 347.699219 290.171875 338.679688 291 337.65625 L 385.929688 220.390625 C 388.023438 217.804688 390.140625 215.558594 391.191406 214.542969 C 392.957031 214.164062 396.921875 213.695312 399.90625 213.683594 C 401.953125 213.675781 450.335938 213.429688 471.550781 209.085938 C 494.953125 204.289062 508.183594 186.085938 508.734375 185.3125 C 513.089844 179.210938 513.089844 170.011719 508.730469 163.910156 Z M 508.730469 163.910156 " data-original="#000000" class="active-path" data-old_color="#000000" fill="#1273EB"/>
<path d="M 102.074219 100.675781 L 62.296875 100.675781 C 53.824219 100.675781 46.957031 107.621094 46.957031 116.191406 C 46.957031 124.757812 53.824219 131.707031 62.296875 131.707031 L 102.074219 131.707031 C 110.546875 131.707031 117.417969 124.757812 117.417969 116.191406 C 117.417969 107.621094 110.546875 100.675781 102.074219 100.675781 Z M 102.074219 100.675781 " data-original="#000000" class="active-path" data-old_color="#000000" fill="#1273EB"/>
<path d="M 102.074219 221.609375 L 62.296875 221.609375 C 53.824219 221.609375 46.957031 228.554688 46.957031 237.121094 C 46.957031 245.691406 53.824219 252.636719 62.296875 252.636719 L 102.074219 252.636719 C 110.546875 252.636719 117.417969 245.691406 117.417969 237.121094 C 117.417969 228.554688 110.546875 221.609375 102.074219 221.609375 Z M 102.074219 221.609375 " data-original="#000000" class="active-path" data-old_color="#000000" fill="#1273EB"/>
<path d="M 102.074219 161.140625 L 15.34375 161.140625 C 6.871094 161.140625 0 168.089844 0 176.65625 C 0 185.226562 6.871094 192.171875 15.34375 192.171875 L 102.074219 192.171875 C 110.546875 192.171875 117.417969 185.226562 117.417969 176.65625 C 117.417969 168.089844 110.546875 161.140625 102.074219 161.140625 Z M 102.074219 161.140625 " data-original="#000000" class="active-path" data-old_color="#000000" fill="#1273EB"/>
</g></g> </svg>
